
<svg width="8px" height="12px" viewBox="35 2 8 12" version="1.1" xmlns="http://www.w3.org/2000/svg" xmlns:xlink="http://www.w3.org/1999/xlink">
    <defs></defs>
    <path d="M41.847868,6.11965436 L42.9287677,4.10208484 L39.5507187,2 L38.575469,3.82014481 L38.2506091,4.42662671 L35,10.4942637 L35.7137738,13.3654724 L38.378049,12.5956279 L41.6286581,6.52871156 L41.847868,6.11965436 L41.847868,6.11965436 Z M36.2010697,12.4550236 L35.7249988,10.5418452 L35.7249988,10.5411246 L37.9772491,11.9429949 L36.2010697,12.4550236 L36.2010697,12.4550236 Z M38.3027691,11.3358031 L36.0505197,9.93465344 L38.8138389,4.77673399 L41.0654283,6.17859353 L38.3027691,11.3358031 L38.3027691,11.3358031 Z M39.1386988,4.17026284 L39.7890886,2.9573001 L42.041998,4.35844872 L41.3902882,5.57141253 L39.1386988,4.17026284 L39.1386988,4.17026284 Z" id="path25_fill" stroke="none" fill="#828282" fill-rule="evenodd"></path>
</svg>
